<svg width="100%" height="100%" viewBox="0 0 27 18" version="1.1" xmlns="http://www.w3.org/2000/svg" xmlns:xlink="http://www.w3.org/1999/xlink" xml:space="preserve" xmlns:serif="http://www.serif.com/" style="fill-rule:evenodd;clip-rule:evenodd;stroke-linejoin:round;stroke-miterlimit:1.41421;">
    <path fill="#fff" d="M9.011,13.632C8.64,13.372 8.178,13.216 7.68,13.216C6.39,13.216 5.344,14.262 5.344,15.552C5.344,16.842 6.39,17.888 7.68,17.888C8.178,17.888 8.639,17.732 9.018,17.467L9.01,17.472L9.01,17.792L10.13,17.792L10.13,11.776L9.01,11.776L9.011,13.632ZM7.667,16.832C6.925,16.832 6.323,16.23 6.323,15.488C6.323,14.746 6.925,14.144 7.667,14.144C8.409,14.144 9.011,14.746 9.011,15.488C9.011,15.499 9.011,15.51 9.011,15.522L9.011,15.52C8.994,16.227 8.435,16.798 7.734,16.832L7.731,16.832L7.667,16.832ZM3.667,13.632C3.296,13.372 2.834,13.216 2.336,13.216C1.046,13.216 0,14.262 0,15.552C0,16.842 1.046,17.888 2.336,17.888C2.834,17.888 3.295,17.732 3.674,17.467L3.666,17.472L3.666,17.792L4.786,17.792L4.786,13.28L3.762,13.28L3.667,13.632ZM2.355,16.832C2.346,16.832 2.334,16.832 2.323,16.832C1.581,16.832 0.979,16.23 0.979,15.488C0.979,14.746 1.581,14.144 2.323,14.144C3.065,14.144 3.667,14.746 3.667,15.488C3.667,15.499 3.667,15.51 3.667,15.521L3.667,15.519C3.655,16.195 3.146,16.749 2.49,16.83L2.483,16.831L2.355,16.832ZM17.587,11.776L12.083,2.24L16.083,0L22.835,11.776L17.587,11.776ZM6.931,8.192L9.011,11.776L3.763,11.776L3.027,10.464L6.931,8.192ZM26.771,16.384C26.771,17.408 25.875,17.856 24.819,17.856C23.507,17.856 22.739,17.216 22.707,16.32L23.859,16.32C23.859,16.64 24.115,17.024 24.851,17.024C25.363,17.024 25.555,16.8 25.555,16.576C25.555,16.352 25.363,16.224 24.947,16.128L24.371,16.032C23.635,15.904 22.803,15.712 22.803,14.688C22.803,13.664 23.507,13.216 24.691,13.216C25.875,13.216 26.547,13.792 26.579,14.688L25.427,14.688C25.427,14.368 25.171,14.08 24.627,14.08C24.083,14.08 23.923,14.208 23.923,14.496C23.923,14.784 24.243,14.88 24.691,14.944L25.395,15.104C26.355,15.264 26.771,15.68 26.771,16.384ZM21.171,13.632C20.803,13.372 20.345,13.216 19.85,13.216C19.842,13.216 19.834,13.216 19.825,13.216L19.826,13.216C18.536,13.216 17.49,14.262 17.49,15.552C17.49,16.842 18.536,17.888 19.826,17.888C19.833,17.888 19.841,17.888 19.849,17.888C20.343,17.888 20.802,17.732 21.177,17.467L21.17,17.472L21.17,17.792L22.29,17.792L22.29,13.28L21.17,13.28L21.171,13.632ZM19.827,16.832C19.085,16.832 18.483,16.23 18.483,15.488C18.483,14.746 19.085,14.144 19.827,14.144C20.569,14.144 21.171,14.746 21.171,15.488C21.171,15.499 21.171,15.51 21.171,15.522L21.171,15.52C21.154,16.227 20.595,16.798 19.894,16.832L19.891,16.832L19.827,16.832ZM10.675,13.28L11.795,13.28L11.795,17.792L10.675,17.792L10.675,13.28ZM15.923,13.632C15.552,13.372 15.09,13.216 14.592,13.216C13.302,13.216 12.256,14.262 12.256,15.552C12.256,16.842 13.302,17.888 14.592,17.888C15.09,17.888 15.551,17.732 15.93,17.467L15.922,17.472L15.922,17.792L17.042,17.792L17.042,11.776L15.922,11.776L15.923,13.632ZM14.611,16.832C14.602,16.832 14.591,16.832 14.579,16.832C13.837,16.832 13.235,16.23 13.235,15.488C13.235,14.746 13.837,14.144 14.579,14.144C15.321,14.144 15.923,14.746 15.923,15.488C15.923,15.499 15.923,15.51 15.923,15.521L15.923,15.519C15.906,16.226 15.347,16.797 14.646,16.831L14.643,16.831L14.611,16.832ZM11.507,4.128L15.923,11.776L11.795,11.776L11.795,12.896L10.675,12.896L10.675,11.776L7.603,6.464L11.507,4.128Z" style="fill:#fff;fill-rule:nonzero;"/>
</svg>
